%TF.GenerationSoftware,Novarm,DipTrace,3.0.0.2*%
%TF.CreationDate,2017-04-09T13:10:19+02:00*%
%FSLAX26Y26*%
%MOIN*%
%TF.FileFunction,Soldermask,Bot*%
%TF.Part,Single*%
%AMOUTLINE1*
4,1,10,
-0.104409,0.023701,
-0.035128,0.023701,
-0.011506,0.047323,
0.078435,0.047323,
0.104409,0.021348,
0.104409,-0.021348,
0.078435,-0.047323,
-0.011506,-0.047323,
-0.035128,-0.023701,
-0.104409,-0.023701,
-0.104409,0.023701,
0*%
%ADD46R,0.031654X0.086772*%
%ADD48R,0.074961X0.027717*%
%ADD50R,0.027717X0.074961*%
%ADD56R,0.067087X0.047402*%
%ADD58R,0.033622X0.04937*%
%ADD60C,0.074961*%
%ADD62R,0.074961X0.074961*%
%ADD70R,0.047402X0.051339*%
%ADD72R,0.051339X0.047402*%
%ADD81OUTLINE1*%
G75*
G01*
%LPD*%
D72*
X1614587Y919016D3*
X1681516D3*
X1106516Y1531516D3*
X1173445D3*
D70*
X1069016Y1381516D3*
Y1314587D3*
D72*
X1406516Y869016D3*
X1473445D3*
D62*
X769016Y531516D3*
D60*
X869016D3*
X969016D3*
X1069016D3*
X1169016D3*
X1269016D3*
X1369016D3*
X1469016D3*
X1569016D3*
X1669016D3*
D70*
X569016Y644016D3*
Y710945D3*
X656516Y644016D3*
Y710945D3*
X744016Y644016D3*
Y710945D3*
D58*
X731713Y1559567D3*
X806516D3*
X769114Y1469016D3*
X1794016Y1006516D3*
X1868819D3*
X1831417Y915965D3*
X644016Y1319016D3*
X718819D3*
X681417Y1228465D3*
X1794016Y706516D3*
X1719213D3*
X1756614Y797067D3*
X919016Y731516D3*
X993819D3*
X956417Y640965D3*
D70*
X831516Y644016D3*
Y710945D3*
D56*
X1131516Y669016D3*
D81*
X1202382Y728071D3*
D56*
X1131516Y787126D3*
D72*
X794016Y1656516D3*
X727087D3*
X1656516Y1081516D3*
X1723445D3*
X1656516Y1281516D3*
X1723445D3*
D70*
X631516Y1419016D3*
Y1485945D3*
D72*
X1656516Y1219016D3*
X1723445D3*
X1656516Y1156516D3*
X1723445D3*
X1169016Y1444016D3*
X1102087D3*
D50*
X1244016Y1294016D3*
X1275512D3*
X1307008D3*
X1338504D3*
X1370000D3*
X1401496D3*
X1432992D3*
X1464488D3*
D48*
X1519606Y1238898D3*
Y1207402D3*
Y1175906D3*
Y1144409D3*
Y1112913D3*
Y1081417D3*
Y1049921D3*
Y1018425D3*
D50*
X1464488Y963307D3*
X1432992D3*
X1401496D3*
X1370000D3*
X1338504D3*
X1307008D3*
X1275512D3*
X1244016D3*
D48*
X1188898Y1018425D3*
Y1049921D3*
Y1081417D3*
Y1112913D3*
Y1144409D3*
Y1175906D3*
Y1207402D3*
Y1238898D3*
D70*
X1256516Y1444016D3*
Y1510945D3*
D46*
X581516Y1081516D3*
X631516D3*
X681516D3*
X731516D3*
X781516D3*
X831516D3*
X881516D3*
X931516D3*
Y868917D3*
X881516D3*
X831516D3*
X781516D3*
X731516D3*
X681516D3*
X631516D3*
X581516D3*
M02*
