%TF.GenerationSoftware,Novarm,DipTrace,3.0.0.2*%
%TF.CreationDate,2017-04-09T13:10:20+02:00*%
%FSLAX26Y26*%
%MOIN*%
%TF.FileFunction,Drawing,Bot*%
%TF.Part,Single*%
%AMOUTLINE0*
4,1,10,
-0.100394,0.019685,
-0.033465,0.019685,
-0.009843,0.043307,
0.076772,0.043307,
0.100394,0.019685,
0.100394,-0.019685,
0.076772,-0.043307,
-0.009843,-0.043307,
-0.033465,-0.019685,
-0.100394,-0.019685,
-0.100394,0.019685,
0*%
%ADD10C,0.009843*%
%ADD11C,0.005512*%
%ADD78C,0.004632*%
%ADD20R,0.043307X0.03937*%
%ADD21R,0.03937X0.043307*%
%TA.AperFunction,ComponentPad*%
%ADD27R,0.066929X0.066929*%
%ADD28C,0.066929*%
%ADD30R,0.025591X0.041339*%
%ADD32R,0.059055X0.03937*%
%ADD37R,0.019685X0.066929*%
%ADD38R,0.066929X0.019685*%
%ADD39R,0.023622X0.07874*%
%ADD80OUTLINE0*%
G75*
G01*
%LPD*%
X1592933Y938701D2*
D10*
X1703169D1*
Y899331D1*
X1592933D1*
Y938701D1*
D20*
X1614587Y919016D3*
X1681516D3*
X1084862Y1551201D2*
D10*
X1195098D1*
Y1511831D1*
X1084862D1*
Y1551201D1*
D20*
X1106516Y1531516D3*
X1173445D3*
X1049331Y1403169D2*
D10*
X1088701D1*
Y1292933D1*
X1049331D1*
Y1403169D1*
D21*
X1069016Y1381516D3*
Y1314587D3*
X1384862Y888701D2*
D10*
X1495098D1*
Y849331D1*
X1384862D1*
Y888701D1*
D20*
X1406516Y869016D3*
X1473445D3*
D27*
X769016Y531516D3*
D28*
X869016D3*
X969016D3*
X1069016D3*
X1169016D3*
X1269016D3*
X1369016D3*
X1469016D3*
X1569016D3*
X1669016D3*
X549331Y732598D2*
D10*
X588701D1*
Y622362D1*
X549331D1*
Y732598D1*
D21*
X569016Y644016D3*
Y710945D3*
X636831Y732598D2*
D10*
X676201D1*
Y622362D1*
X636831D1*
Y732598D1*
D21*
X656516Y644016D3*
Y710945D3*
X724331Y732598D2*
D10*
X763701D1*
Y622362D1*
X724331D1*
Y732598D1*
D21*
X744016Y644016D3*
Y710945D3*
X693161Y1581987D2*
D10*
X828169D1*
Y1448346D1*
X693161D1*
Y1581987D1*
D30*
X731713Y1559567D3*
X806516D3*
X769114Y1469016D3*
X1755465Y1028936D2*
D10*
X1890472D1*
Y895295D1*
X1755465D1*
Y1028936D1*
D30*
X1794016Y1006516D3*
X1868819D3*
X1831417Y915965D3*
X605465Y1341436D2*
D10*
X740472D1*
Y1207795D1*
X605465D1*
Y1341436D1*
D30*
X644016Y1319016D3*
X718819D3*
X681417Y1228465D3*
X1697559Y817736D2*
D10*
X1832567D1*
Y684096D1*
X1697559D1*
Y817736D1*
D30*
X1794016Y706516D3*
X1719213D3*
X1756614Y797067D3*
X880465Y753936D2*
D10*
X1015472D1*
Y620295D1*
X880465D1*
Y753936D1*
D30*
X919016Y731516D3*
X993819D3*
X956417Y640965D3*
X811831Y732598D2*
D10*
X851201D1*
Y622362D1*
X811831D1*
Y732598D1*
D21*
X831516Y644016D3*
Y710945D3*
X1101988Y816654D2*
D10*
X1302776D1*
Y622690D1*
X1101988D1*
Y816654D1*
D32*
X1131516Y669016D3*
D80*
X1202382Y728071D3*
D32*
X1131516Y787126D3*
X705433Y1676201D2*
D10*
X815669D1*
Y1636831D1*
X705433D1*
Y1676201D1*
D20*
X794016Y1656516D3*
X727087D3*
X1634862Y1101201D2*
D10*
X1745098D1*
Y1061831D1*
X1634862D1*
Y1101201D1*
D20*
X1656516Y1081516D3*
X1723445D3*
X1634862Y1301201D2*
D10*
X1745098D1*
Y1261831D1*
X1634862D1*
Y1301201D1*
D20*
X1656516Y1281516D3*
X1723445D3*
X611831Y1507598D2*
D10*
X651201D1*
Y1397362D1*
X611831D1*
Y1507598D1*
D21*
X631516Y1419016D3*
Y1485945D3*
X1634862Y1238701D2*
D10*
X1745098D1*
Y1199331D1*
X1634862D1*
Y1238701D1*
D20*
X1656516Y1219016D3*
X1723445D3*
X1634862Y1176201D2*
D10*
X1745098D1*
Y1136831D1*
X1634862D1*
Y1176201D1*
D20*
X1656516Y1156516D3*
X1723445D3*
X1080433Y1463701D2*
D10*
X1190669D1*
Y1424331D1*
X1080433D1*
Y1463701D1*
D20*
X1169016Y1444016D3*
X1102087D3*
X1155433Y1327480D2*
D10*
X1553071D1*
Y929843D1*
X1155433D1*
Y1327480D1*
D37*
X1244016Y1294016D3*
X1275512D3*
X1307008D3*
X1338504D3*
X1370000D3*
X1401496D3*
X1432992D3*
X1464488D3*
D38*
X1519606Y1238898D3*
Y1207402D3*
Y1175906D3*
Y1144409D3*
Y1112913D3*
Y1081417D3*
Y1049921D3*
Y1018425D3*
D37*
X1464488Y963307D3*
X1432992D3*
X1401496D3*
X1370000D3*
X1338504D3*
X1307008D3*
X1275512D3*
X1244016D3*
D38*
X1188898Y1018425D3*
Y1049921D3*
Y1081417D3*
Y1112913D3*
Y1144409D3*
Y1175906D3*
Y1207402D3*
Y1238898D3*
X1236831Y1532598D2*
D10*
X1276201D1*
Y1422362D1*
X1236831D1*
Y1532598D1*
D21*
X1256516Y1444016D3*
Y1510945D3*
X559681Y1120886D2*
D10*
X953350D1*
Y829547D1*
X559681D1*
Y1120886D1*
D39*
X581516Y1081516D3*
X631516D3*
X681516D3*
X731516D3*
X781516D3*
X831516D3*
X881516D3*
X931516D3*
Y868917D3*
X881516D3*
X831516D3*
X781516D3*
X731516D3*
X681516D3*
X631516D3*
X581516D3*
X1674880Y975472D2*
D78*
X1676306Y978324D1*
X1679191Y981209D1*
X1682043Y982635D1*
X1687779D1*
X1690665Y981209D1*
X1693516Y978324D1*
X1694976Y975472D1*
X1696402Y971161D1*
Y963965D1*
X1694976Y959687D1*
X1693516Y956802D1*
X1690665Y953950D1*
X1687779Y952491D1*
X1682043D1*
X1679191Y953950D1*
X1676306Y956802D1*
X1674880Y959687D1*
X1665616Y976864D2*
X1662731Y978324D1*
X1658420Y982601D1*
Y952491D1*
X1640534Y982601D2*
X1644845Y981176D1*
X1647730Y976864D1*
X1649156Y969702D1*
Y965391D1*
X1647730Y958228D1*
X1644845Y953917D1*
X1640534Y952491D1*
X1637682D1*
X1633371Y953917D1*
X1630519Y958228D1*
X1629060Y965391D1*
Y969702D1*
X1630519Y976864D1*
X1633371Y981176D1*
X1637682Y982601D1*
X1640534D1*
X1630519Y976864D2*
X1647730Y958228D1*
X1618338Y975439D2*
Y976864D1*
X1616912Y979750D1*
X1615486Y981176D1*
X1612601Y982601D1*
X1606864D1*
X1604012Y981176D1*
X1602586Y979750D1*
X1601127Y976864D1*
Y974013D1*
X1602586Y971128D1*
X1605438Y966850D1*
X1619797Y952491D1*
X1599701D1*
X1166809Y1587972D2*
X1168235Y1590824D1*
X1171120Y1593709D1*
X1173972Y1595135D1*
X1179709D1*
X1182594Y1593709D1*
X1185446Y1590824D1*
X1186905Y1587972D1*
X1188331Y1583661D1*
Y1576465D1*
X1186905Y1572187D1*
X1185446Y1569302D1*
X1182594Y1566450D1*
X1179709Y1564991D1*
X1173972D1*
X1171120Y1566450D1*
X1168235Y1569302D1*
X1166809Y1572187D1*
X1157545Y1589364D2*
X1154660Y1590824D1*
X1150349Y1595101D1*
Y1564991D1*
X1132463Y1595101D2*
X1136774Y1593676D1*
X1139660Y1589364D1*
X1141086Y1582202D1*
Y1577891D1*
X1139660Y1570728D1*
X1136774Y1566417D1*
X1132463Y1564991D1*
X1129612D1*
X1125301Y1566417D1*
X1122449Y1570728D1*
X1120990Y1577891D1*
Y1582202D1*
X1122449Y1589364D1*
X1125301Y1593676D1*
X1129612Y1595101D1*
X1132463D1*
X1122449Y1589364D2*
X1139660Y1570728D1*
X1108841Y1595101D2*
X1093089D1*
X1101678Y1583628D1*
X1097367D1*
X1094515Y1582202D1*
X1093089Y1580776D1*
X1091630Y1576465D1*
Y1573613D1*
X1093089Y1569302D1*
X1095941Y1566417D1*
X1100252Y1564991D1*
X1104563D1*
X1108841Y1566417D1*
X1110267Y1567876D1*
X1111726Y1570728D1*
X1012560Y1374150D2*
X1009708Y1375576D1*
X1006823Y1378461D1*
X1005397Y1381313D1*
Y1387050D1*
X1006823Y1389935D1*
X1009708Y1392787D1*
X1012560Y1394246D1*
X1016871Y1395672D1*
X1024067D1*
X1028345Y1394246D1*
X1031230Y1392787D1*
X1034082Y1389935D1*
X1035541Y1387050D1*
Y1381313D1*
X1034082Y1378461D1*
X1031230Y1375576D1*
X1028345Y1374150D1*
X1011167Y1364886D2*
X1009708Y1362001D1*
X1005430Y1357690D1*
X1035541D1*
X1005430Y1339805D2*
X1006856Y1344116D1*
X1011167Y1347001D1*
X1018330Y1348427D1*
X1022641D1*
X1029804Y1347001D1*
X1034115Y1344116D1*
X1035541Y1339805D1*
Y1336953D1*
X1034115Y1332642D1*
X1029804Y1329790D1*
X1022641Y1328331D1*
X1018330D1*
X1011167Y1329790D1*
X1006856Y1332642D1*
X1005430Y1336953D1*
Y1339805D1*
X1011167Y1329790D2*
X1029804Y1347001D1*
X1009708Y1301856D2*
X1006856Y1303282D1*
X1005430Y1307593D1*
Y1310445D1*
X1006856Y1314756D1*
X1011167Y1317641D1*
X1018330Y1319067D1*
X1025493D1*
X1031230Y1317641D1*
X1034115Y1314756D1*
X1035541Y1310445D1*
Y1309019D1*
X1034115Y1304742D1*
X1031230Y1301856D1*
X1026919Y1300431D1*
X1025493D1*
X1021182Y1301856D1*
X1018330Y1304742D1*
X1016904Y1309019D1*
Y1310445D1*
X1018330Y1314756D1*
X1021182Y1317641D1*
X1025493Y1319067D1*
X1466809Y925472D2*
X1468235Y928324D1*
X1471120Y931209D1*
X1473972Y932635D1*
X1479709D1*
X1482594Y931209D1*
X1485446Y928324D1*
X1486905Y925472D1*
X1488331Y921161D1*
Y913965D1*
X1486905Y909687D1*
X1485446Y906802D1*
X1482594Y903950D1*
X1479709Y902491D1*
X1473972D1*
X1471120Y903950D1*
X1468235Y906802D1*
X1466809Y909687D1*
X1457545Y926864D2*
X1454660Y928324D1*
X1450349Y932601D1*
Y902491D1*
X1432463Y932601D2*
X1436774Y931176D1*
X1439660Y926864D1*
X1441086Y919702D1*
Y915391D1*
X1439660Y908228D1*
X1436774Y903917D1*
X1432463Y902491D1*
X1429612D1*
X1425301Y903917D1*
X1422449Y908228D1*
X1420990Y915391D1*
Y919702D1*
X1422449Y926864D1*
X1425301Y931176D1*
X1429612Y932601D1*
X1432463D1*
X1422449Y926864D2*
X1439660Y908228D1*
X1405989Y902491D2*
X1391630Y932601D1*
X1411726D1*
X519756Y709725D2*
Y696825D1*
X518297Y692514D1*
X516871Y691055D1*
X514019Y689629D1*
X511134D1*
X508282Y691055D1*
X506823Y692514D1*
X505397Y696825D1*
Y709725D1*
X535541D1*
X519756Y699677D2*
X535541Y689629D1*
X511167Y680365D2*
X509708Y677480D1*
X505430Y673169D1*
X535541D1*
X515445Y645236D2*
X519756Y646695D1*
X522641Y649547D1*
X524067Y653858D1*
Y655284D1*
X522641Y659595D1*
X519756Y662447D1*
X515445Y663906D1*
X514019D1*
X509708Y662447D1*
X506856Y659595D1*
X505430Y655284D1*
Y653858D1*
X506856Y649547D1*
X509708Y646695D1*
X515445Y645236D1*
X522641D1*
X529804Y646695D1*
X534115Y649547D1*
X535541Y653858D1*
Y656710D1*
X534115Y661021D1*
X531230Y662447D1*
X607256Y716888D2*
Y703988D1*
X605797Y699677D1*
X604371Y698218D1*
X601519Y696792D1*
X598634D1*
X595782Y698218D1*
X594323Y699677D1*
X592897Y703988D1*
Y716888D1*
X623041D1*
X607256Y706840D2*
X623041Y696792D1*
X600093Y686069D2*
X598667D1*
X595782Y684643D1*
X594356Y683217D1*
X592930Y680332D1*
Y674595D1*
X594356Y671743D1*
X595782Y670317D1*
X598667Y668858D1*
X601519D1*
X604404Y670317D1*
X608682Y673169D1*
X623041Y687528D1*
Y667432D1*
X592930Y649547D2*
X594356Y653858D1*
X598667Y656743D1*
X605830Y658169D1*
X610141D1*
X617304Y656743D1*
X621615Y653858D1*
X623041Y649547D1*
Y646695D1*
X621615Y642384D1*
X617304Y639532D1*
X610141Y638073D1*
X605830D1*
X598667Y639532D1*
X594356Y642384D1*
X592930Y646695D1*
Y649547D1*
X598667Y639532D2*
X617304Y656743D1*
X694756Y710438D2*
Y697538D1*
X693297Y693227D1*
X691871Y691768D1*
X689019Y690342D1*
X686134D1*
X683282Y691768D1*
X681823Y693227D1*
X680397Y697538D1*
Y710438D1*
X710541D1*
X694756Y700390D2*
X710541Y690342D1*
X687593Y679619D2*
X686167D1*
X683282Y678193D1*
X681856Y676767D1*
X680430Y673882D1*
Y668145D1*
X681856Y665293D1*
X683282Y663868D1*
X686167Y662408D1*
X689019D1*
X691904Y663868D1*
X696182Y666719D1*
X710541Y681078D1*
Y660982D1*
X686167Y651719D2*
X684708Y648834D1*
X680430Y644523D1*
X710541D1*
X771764Y1625921D2*
X774616Y1624528D1*
X777501Y1621643D1*
X778927Y1618758D1*
X780386Y1614447D1*
Y1607284D1*
X778927Y1602973D1*
X777501Y1600121D1*
X774616Y1597236D1*
X771764Y1595810D1*
X766027D1*
X763142Y1597236D1*
X760290Y1600121D1*
X758864Y1602973D1*
X757405Y1607284D1*
Y1614447D1*
X758864Y1618758D1*
X760290Y1621643D1*
X763142Y1624528D1*
X766027Y1625921D1*
X771764D1*
X767453Y1601547D2*
X758864Y1592925D1*
X748141Y1620151D2*
X745256Y1621610D1*
X740945Y1625888D1*
Y1595777D1*
X1840517Y1072870D2*
X1843369Y1071477D1*
X1846254Y1068592D1*
X1847680Y1065707D1*
X1849139Y1061396D1*
Y1054233D1*
X1847680Y1049922D1*
X1846254Y1047070D1*
X1843369Y1044185D1*
X1840517Y1042759D1*
X1834780D1*
X1831895Y1044185D1*
X1829043Y1047070D1*
X1827617Y1049922D1*
X1826158Y1054233D1*
Y1061396D1*
X1827617Y1065707D1*
X1829043Y1068592D1*
X1831895Y1071477D1*
X1834780Y1072870D1*
X1840517D1*
X1836206Y1048496D2*
X1827617Y1039874D1*
X1814009Y1072836D2*
X1798257D1*
X1806846Y1061362D1*
X1802535D1*
X1799683Y1059936D1*
X1798257Y1058511D1*
X1796798Y1054199D1*
Y1051348D1*
X1798257Y1047037D1*
X1801109Y1044151D1*
X1805420Y1042726D1*
X1809731D1*
X1814009Y1044151D1*
X1815435Y1045611D1*
X1816894Y1048463D1*
X691230Y1385370D2*
X694082Y1383977D1*
X696967Y1381092D1*
X698393Y1378207D1*
X699852Y1373896D1*
Y1366733D1*
X698393Y1362422D1*
X696967Y1359570D1*
X694082Y1356685D1*
X691230Y1355259D1*
X685493D1*
X682608Y1356685D1*
X679756Y1359570D1*
X678330Y1362422D1*
X676871Y1366733D1*
Y1373896D1*
X678330Y1378207D1*
X679756Y1381092D1*
X682608Y1383977D1*
X685493Y1385370D1*
X691230D1*
X686919Y1360996D2*
X678330Y1352374D1*
X653248Y1355226D2*
Y1385336D1*
X667607Y1365274D1*
X646085D1*
X1782611Y861670D2*
X1785463Y860277D1*
X1788348Y857392D1*
X1789774Y854507D1*
X1791233Y850196D1*
Y843033D1*
X1789774Y838722D1*
X1788348Y835870D1*
X1785463Y832985D1*
X1782611Y831559D1*
X1776874D1*
X1773989Y832985D1*
X1771137Y835870D1*
X1769711Y838722D1*
X1768252Y843033D1*
Y850196D1*
X1769711Y854507D1*
X1771137Y857392D1*
X1773989Y860277D1*
X1776874Y861670D1*
X1782611D1*
X1778300Y837296D2*
X1769711Y828674D1*
X1741778Y861637D2*
X1756104D1*
X1757530Y848737D1*
X1756104Y850163D1*
X1751793Y851622D1*
X1747515D1*
X1743204Y850163D1*
X1740319Y847311D1*
X1738893Y843000D1*
Y840148D1*
X1740319Y835837D1*
X1743204Y832952D1*
X1747515Y831526D1*
X1751793D1*
X1756104Y832952D1*
X1757530Y834411D1*
X1758989Y837263D1*
X964787Y797870D2*
X967639Y796477D1*
X970524Y793592D1*
X971950Y790707D1*
X973409Y786396D1*
Y779233D1*
X971950Y774922D1*
X970524Y772070D1*
X967639Y769185D1*
X964787Y767759D1*
X959050D1*
X956165Y769185D1*
X953313Y772070D1*
X951887Y774922D1*
X950428Y779233D1*
Y786396D1*
X951887Y790707D1*
X953313Y793592D1*
X956165Y796477D1*
X959050Y797870D1*
X964787D1*
X960476Y773496D2*
X951887Y764874D1*
X923954Y793559D2*
X925380Y796410D1*
X929691Y797836D1*
X932543D1*
X936854Y796410D1*
X939739Y792099D1*
X941165Y784936D1*
Y777774D1*
X939739Y772037D1*
X936854Y769151D1*
X932543Y767726D1*
X931117D1*
X926839Y769151D1*
X923954Y772037D1*
X922528Y776348D1*
Y777774D1*
X923954Y782085D1*
X926839Y784936D1*
X931117Y786362D1*
X932543D1*
X936854Y784936D1*
X939739Y782085D1*
X941165Y777774D1*
X782256Y716888D2*
Y703988D1*
X780797Y699677D1*
X779371Y698218D1*
X776519Y696792D1*
X773634D1*
X770782Y698218D1*
X769323Y699677D1*
X767897Y703988D1*
Y716888D1*
X798041D1*
X782256Y706840D2*
X798041Y696792D1*
X775093Y686069D2*
X773667D1*
X770782Y684643D1*
X769356Y683217D1*
X767930Y680332D1*
Y674595D1*
X769356Y671743D1*
X770782Y670317D1*
X773667Y668858D1*
X776519D1*
X779404Y670317D1*
X783682Y673169D1*
X798041Y687528D1*
Y667432D1*
X775093Y656710D2*
X773667D1*
X770782Y655284D1*
X769356Y653858D1*
X767930Y650973D1*
Y645236D1*
X769356Y642384D1*
X770782Y640958D1*
X773667Y639499D1*
X776519D1*
X779404Y640958D1*
X783682Y643810D1*
X798041Y658169D1*
Y638073D1*
X1219914Y860587D2*
X1222765Y859195D1*
X1225651Y856310D1*
X1227077Y853424D1*
X1228536Y849113D1*
Y841951D1*
X1227077Y837639D1*
X1225651Y834788D1*
X1222765Y831903D1*
X1219914Y830477D1*
X1214177D1*
X1211292Y831903D1*
X1208440Y834788D1*
X1207014Y837639D1*
X1205555Y841951D1*
Y849113D1*
X1207014Y853424D1*
X1208440Y856310D1*
X1211292Y859195D1*
X1214177Y860587D1*
X1219914D1*
X1215603Y836214D2*
X1207014Y827591D1*
X1189128Y860554D2*
X1193406Y859128D1*
X1194865Y856276D1*
Y853391D1*
X1193406Y850539D1*
X1190554Y849080D1*
X1184817Y847654D1*
X1180506Y846228D1*
X1177654Y843343D1*
X1176228Y840491D1*
Y836180D1*
X1177654Y833328D1*
X1179080Y831869D1*
X1183391Y830443D1*
X1189128D1*
X1193406Y831869D1*
X1194865Y833328D1*
X1196291Y836180D1*
Y840491D1*
X1194865Y843343D1*
X1191980Y846228D1*
X1187702Y847654D1*
X1181965Y849080D1*
X1179080Y850539D1*
X1177654Y853391D1*
Y856276D1*
X1179080Y859128D1*
X1183391Y860554D1*
X1189128D1*
X785279Y1705776D2*
X772379D1*
X768068Y1707235D1*
X766609Y1708661D1*
X765183Y1711513D1*
Y1714398D1*
X766609Y1717250D1*
X768068Y1718709D1*
X772379Y1720135D1*
X785279D1*
Y1689991D1*
X775231Y1705776D2*
X765183Y1689991D1*
X753034Y1720101D2*
X737283D1*
X745871Y1708628D1*
X741560D1*
X738708Y1707202D1*
X737283Y1705776D1*
X735823Y1701465D1*
Y1698613D1*
X737283Y1694302D1*
X740134Y1691417D1*
X744445Y1689991D1*
X748756D1*
X753034Y1691417D1*
X754460Y1692876D1*
X755919Y1695728D1*
X1715421Y1130776D2*
X1702521D1*
X1698210Y1132235D1*
X1696751Y1133661D1*
X1695325Y1136513D1*
Y1139398D1*
X1696751Y1142250D1*
X1698210Y1143709D1*
X1702521Y1145135D1*
X1715421D1*
Y1114991D1*
X1705373Y1130776D2*
X1695325Y1114991D1*
X1671702D2*
Y1145101D1*
X1686062Y1125039D1*
X1664540D1*
X1714692Y1330776D2*
X1701792D1*
X1697481Y1332235D1*
X1696021Y1333661D1*
X1694596Y1336513D1*
Y1339398D1*
X1696021Y1342250D1*
X1697481Y1343709D1*
X1701792Y1345135D1*
X1714692D1*
Y1314991D1*
X1704644Y1330776D2*
X1694596Y1314991D1*
X1678169Y1345101D2*
X1682447Y1343676D1*
X1683906Y1340824D1*
Y1337939D1*
X1682447Y1335087D1*
X1679595Y1333628D1*
X1673858Y1332202D1*
X1669547Y1330776D1*
X1666695Y1327891D1*
X1665269Y1325039D1*
Y1320728D1*
X1666695Y1317876D1*
X1668121Y1316417D1*
X1672432Y1314991D1*
X1678169D1*
X1682447Y1316417D1*
X1683906Y1317876D1*
X1685332Y1320728D1*
Y1325039D1*
X1683906Y1327891D1*
X1681021Y1330776D1*
X1676743Y1332202D1*
X1671006Y1333628D1*
X1668121Y1335087D1*
X1666695Y1337939D1*
Y1340824D1*
X1668121Y1343676D1*
X1672432Y1345101D1*
X1678169D1*
X582256Y1476495D2*
Y1463595D1*
X580797Y1459284D1*
X579371Y1457825D1*
X576519Y1456399D1*
X573634D1*
X570782Y1457825D1*
X569323Y1459284D1*
X567897Y1463595D1*
Y1476495D1*
X598041D1*
X582256Y1466447D2*
X598041Y1456399D1*
X577945Y1428466D2*
X582256Y1429925D1*
X585141Y1432777D1*
X586567Y1437088D1*
Y1438514D1*
X585141Y1442825D1*
X582256Y1445677D1*
X577945Y1447136D1*
X576519D1*
X572208Y1445677D1*
X569356Y1442825D1*
X567930Y1438514D1*
Y1437088D1*
X569356Y1432777D1*
X572208Y1429925D1*
X577945Y1428466D1*
X585141D1*
X592304Y1429925D1*
X596615Y1432777D1*
X598041Y1437088D1*
Y1439940D1*
X596615Y1444251D1*
X593730Y1445677D1*
X1722208Y1268276D2*
X1709308D1*
X1704997Y1269735D1*
X1703538Y1271161D1*
X1702112Y1274013D1*
Y1276898D1*
X1703538Y1279750D1*
X1704997Y1281209D1*
X1709308Y1282635D1*
X1722208D1*
Y1252491D1*
X1712160Y1268276D2*
X1702112Y1252491D1*
X1692849Y1276864D2*
X1689964Y1278324D1*
X1685653Y1282601D1*
Y1252491D1*
X1659178Y1278324D2*
X1660604Y1281176D1*
X1664915Y1282601D1*
X1667767D1*
X1672078Y1281176D1*
X1674963Y1276864D1*
X1676389Y1269702D1*
Y1262539D1*
X1674963Y1256802D1*
X1672078Y1253917D1*
X1667767Y1252491D1*
X1666341D1*
X1662063Y1253917D1*
X1659178Y1256802D1*
X1657752Y1261113D1*
Y1262539D1*
X1659178Y1266850D1*
X1662063Y1269702D1*
X1666341Y1271128D1*
X1667767D1*
X1672078Y1269702D1*
X1674963Y1266850D1*
X1676389Y1262539D1*
X1729388Y1205776D2*
X1716488D1*
X1712177Y1207235D1*
X1710718Y1208661D1*
X1709292Y1211513D1*
Y1214398D1*
X1710718Y1217250D1*
X1712177Y1218709D1*
X1716488Y1220135D1*
X1729388D1*
Y1189991D1*
X1719340Y1205776D2*
X1709292Y1189991D1*
X1698569Y1212939D2*
Y1214364D1*
X1697143Y1217250D1*
X1695717Y1218676D1*
X1692832Y1220101D1*
X1687095D1*
X1684243Y1218676D1*
X1682817Y1217250D1*
X1681358Y1214364D1*
Y1211513D1*
X1682817Y1208628D1*
X1685669Y1204350D1*
X1700028Y1189991D1*
X1679932D1*
X1667784Y1220101D2*
X1652032D1*
X1660621Y1208628D1*
X1656310D1*
X1653458Y1207202D1*
X1652032Y1205776D1*
X1650573Y1201465D1*
Y1198613D1*
X1652032Y1194302D1*
X1654884Y1191417D1*
X1659195Y1189991D1*
X1663506D1*
X1667784Y1191417D1*
X1669210Y1192876D1*
X1670669Y1195728D1*
X1176739Y1493276D2*
X1163839D1*
X1159528Y1494735D1*
X1158069Y1496161D1*
X1156643Y1499013D1*
Y1501898D1*
X1158069Y1504750D1*
X1159528Y1506209D1*
X1163839Y1507635D1*
X1176739D1*
Y1477491D1*
X1166691Y1493276D2*
X1156643Y1477491D1*
X1147379Y1501864D2*
X1144494Y1503324D1*
X1140183Y1507601D1*
Y1477491D1*
X1122297Y1507601D2*
X1126608Y1506176D1*
X1129493Y1501864D1*
X1130919Y1494702D1*
Y1490391D1*
X1129493Y1483228D1*
X1126608Y1478917D1*
X1122297Y1477491D1*
X1119445D1*
X1115134Y1478917D1*
X1112283Y1483228D1*
X1110823Y1490391D1*
Y1494702D1*
X1112283Y1501864D1*
X1115134Y1506176D1*
X1119445Y1507601D1*
X1122297D1*
X1112283Y1501864D2*
X1129493Y1483228D1*
X1101560Y1501864D2*
X1098675Y1503324D1*
X1094364Y1507601D1*
Y1477491D1*
X1401889Y1371414D2*
Y1349892D1*
X1400463Y1345581D1*
X1397578Y1342729D1*
X1393267Y1341270D1*
X1390415D1*
X1386104Y1342729D1*
X1383219Y1345581D1*
X1381793Y1349892D1*
Y1371414D1*
X1372530Y1365644D2*
X1369645Y1367103D1*
X1365334Y1371381D1*
Y1341270D1*
X1347448Y1371381D2*
X1351759Y1369955D1*
X1354644Y1365644D1*
X1356070Y1358481D1*
Y1354170D1*
X1354644Y1347007D1*
X1351759Y1342696D1*
X1347448Y1341270D1*
X1344596D1*
X1340285Y1342696D1*
X1337433Y1347007D1*
X1335974Y1354170D1*
Y1358481D1*
X1337433Y1365644D1*
X1340285Y1369955D1*
X1344596Y1371381D1*
X1347448D1*
X1337433Y1365644D2*
X1354644Y1347007D1*
X1325251Y1364218D2*
Y1365644D1*
X1323826Y1368529D1*
X1322400Y1369955D1*
X1319515Y1371381D1*
X1313778D1*
X1310926Y1369955D1*
X1309500Y1368529D1*
X1308041Y1365644D1*
Y1362792D1*
X1309500Y1359907D1*
X1312352Y1355629D1*
X1326711Y1341270D1*
X1306615D1*
X1207256Y1525118D2*
Y1512218D1*
X1205797Y1507907D1*
X1204371Y1506448D1*
X1201519Y1505022D1*
X1198634D1*
X1195782Y1506448D1*
X1194323Y1507907D1*
X1192897Y1512218D1*
Y1525118D1*
X1223041D1*
X1207256Y1515070D2*
X1223041Y1505022D1*
X1198667Y1495758D2*
X1197208Y1492873D1*
X1192930Y1488562D1*
X1223041D1*
X1192930Y1470677D2*
X1194356Y1474988D1*
X1198667Y1477873D1*
X1205830Y1479299D1*
X1210141D1*
X1217304Y1477873D1*
X1221615Y1474987D1*
X1223041Y1470676D1*
Y1467825D1*
X1221615Y1463514D1*
X1217304Y1460662D1*
X1210141Y1459203D1*
X1205830D1*
X1198667Y1460662D1*
X1194356Y1463514D1*
X1192930Y1467825D1*
Y1470677D1*
X1198667Y1460662D2*
X1217304Y1477873D1*
X1200093Y1448480D2*
X1198667D1*
X1195782Y1447054D1*
X1194356Y1445628D1*
X1192930Y1442743D1*
Y1437006D1*
X1194356Y1434154D1*
X1195782Y1432728D1*
X1198667Y1431269D1*
X1201519D1*
X1204404Y1432728D1*
X1208682Y1435580D1*
X1223041Y1449939D1*
Y1429843D1*
X774064Y1164820D2*
X776916Y1163427D1*
X779801Y1160542D1*
X781227Y1157657D1*
X782686Y1153346D1*
Y1146183D1*
X781227Y1141872D1*
X779801Y1139020D1*
X776916Y1136135D1*
X774064Y1134709D1*
X768327D1*
X765442Y1136135D1*
X762590Y1139020D1*
X761164Y1141872D1*
X759705Y1146183D1*
Y1153346D1*
X761164Y1157657D1*
X762590Y1160542D1*
X765442Y1163427D1*
X768327Y1164820D1*
X774064D1*
X769753Y1140446D2*
X761164Y1131824D1*
X744704Y1134676D2*
X730345Y1164787D1*
X750441D1*
X394016Y394016D2*
D11*
X2165669D1*
Y1771969D1*
X394016D1*
Y394016D1*
M02*
