%TF.GenerationSoftware,Novarm,DipTrace,3.0.0.2*%
%TF.CreationDate,2017-04-09T13:10:16+02:00*%
%FSLAX26Y26*%
%MOIN*%
%TF.FileFunction,Soldermask,Top*%
%TF.Part,Single*%
%ADD52R,0.031654X0.051339*%
%ADD54R,0.086772X0.031654*%
%ADD58R,0.033622X0.04937*%
%ADD60C,0.074961*%
%ADD62R,0.074961X0.074961*%
%ADD64R,0.114331X0.071024*%
%ADD66R,0.04937X0.033622*%
%ADD68R,0.090709X0.090709*%
%ADD70R,0.047402X0.051339*%
%ADD72R,0.051339X0.047402*%
%ADD74R,0.067087X0.059213*%
%ADD76R,0.059213X0.067087*%
G75*
G01*
%LPD*%
D76*
X1606516Y919016D3*
X1681319D3*
D74*
X1406516Y1044016D3*
Y969213D3*
D72*
X1394016Y1444016D3*
X1460945D3*
D70*
X1419016Y1319016D3*
Y1252087D3*
X1169016Y1444016D3*
Y1510945D3*
D74*
X1194016Y706516D3*
Y781319D3*
X719016Y694016D3*
Y768819D3*
X1294016Y706516D3*
Y781319D3*
D76*
X1119016Y856516D3*
X1044213D3*
D72*
X631516Y1406516D3*
X698445D3*
D70*
X794016Y1331516D3*
Y1398445D3*
X719016Y1169016D3*
Y1235945D3*
X1556516Y1519016D3*
Y1452087D3*
D72*
X1456516Y1544016D3*
X1389587D3*
D70*
X1831516Y1506516D3*
Y1439587D3*
D68*
X844016Y869016D3*
Y691850D3*
D66*
X1469016Y719016D3*
Y793819D3*
X1378465Y756417D3*
D74*
X994016Y706516D3*
Y781319D3*
D64*
X606516Y581516D3*
Y691752D3*
D62*
X769016Y531516D3*
D60*
X869016D3*
X969016D3*
X1069016D3*
X1169016D3*
X1269016D3*
X1369016D3*
X1469016D3*
X1569016D3*
X1669016D3*
D58*
X1206516Y1344016D3*
X1131713D3*
X1169114Y1253465D3*
D70*
X1194016Y1044016D3*
Y977087D3*
Y1181516D3*
Y1114587D3*
D72*
X1306516Y1444016D3*
X1239587D3*
D70*
X1069016D3*
Y1510945D3*
D72*
X1356516Y1369016D3*
X1289587D3*
D70*
X969016Y1444016D3*
Y1510945D3*
X1594016Y719016D3*
Y652087D3*
D72*
X1531516Y794016D3*
X1598445D3*
D70*
X1106516Y769016D3*
Y702087D3*
X1844016Y869016D3*
Y935945D3*
Y1069016D3*
Y1002087D3*
D72*
X1744016Y794016D3*
X1677087D3*
D70*
X1681516Y656516D3*
Y723445D3*
X881516Y1444016D3*
Y1510945D3*
D72*
X869016Y1569016D3*
X935945D3*
X706516Y1081516D3*
X773445D3*
X694016Y1481516D3*
X627087D3*
X631516Y1319016D3*
X698445D3*
D70*
X806516Y1231516D3*
Y1164587D3*
D54*
X1519016Y1319016D3*
Y1269016D3*
Y1219016D3*
Y1169016D3*
Y1119016D3*
Y1069016D3*
Y1019016D3*
X1731614D3*
Y1069016D3*
Y1119016D3*
Y1169016D3*
Y1219016D3*
Y1269016D3*
Y1319016D3*
D52*
X969016Y1344016D3*
X931614D3*
X894213D3*
Y1237717D3*
X969016D3*
D66*
X1726693Y1439390D3*
Y1514193D3*
X1636142Y1476791D3*
M02*
