%TF.GenerationSoftware,Novarm,DipTrace,3.0.0.2*%
%TF.CreationDate,2017-04-09T13:10:16+02:00*%
%FSLAX26Y26*%
%MOIN*%
%TF.FileFunction,Paste,Top*%
%TF.Part,Single*%
%ADD53R,0.015591X0.035276*%
%ADD55R,0.070709X0.015591*%
%ADD59R,0.017559X0.033307*%
%ADD65R,0.098268X0.054961*%
%ADD67R,0.033307X0.017559*%
%ADD69R,0.074646X0.074646*%
%ADD71R,0.031339X0.035276*%
%ADD73R,0.035276X0.031339*%
%ADD75R,0.051024X0.04315*%
%ADD77R,0.04315X0.051024*%
G75*
G01*
%LPD*%
D77*
X1606516Y919016D3*
X1681319D3*
D75*
X1406516Y1044016D3*
Y969213D3*
D73*
X1394016Y1444016D3*
X1460945D3*
D71*
X1419016Y1319016D3*
Y1252087D3*
X1169016Y1444016D3*
Y1510945D3*
D75*
X1194016Y706516D3*
Y781319D3*
X719016Y694016D3*
Y768819D3*
X1294016Y706516D3*
Y781319D3*
D77*
X1119016Y856516D3*
X1044213D3*
D73*
X631516Y1406516D3*
X698445D3*
D71*
X794016Y1331516D3*
Y1398445D3*
X719016Y1169016D3*
Y1235945D3*
X1556516Y1519016D3*
Y1452087D3*
D73*
X1456516Y1544016D3*
X1389587D3*
D71*
X1831516Y1506516D3*
Y1439587D3*
D69*
X844016Y869016D3*
Y691850D3*
D67*
X1469016Y719016D3*
Y793819D3*
X1378465Y756417D3*
D75*
X994016Y706516D3*
Y781319D3*
D65*
X606516Y581516D3*
Y691752D3*
D59*
X1206516Y1344016D3*
X1131713D3*
X1169114Y1253465D3*
D71*
X1194016Y1044016D3*
Y977087D3*
Y1181516D3*
Y1114587D3*
D73*
X1306516Y1444016D3*
X1239587D3*
D71*
X1069016D3*
Y1510945D3*
D73*
X1356516Y1369016D3*
X1289587D3*
D71*
X969016Y1444016D3*
Y1510945D3*
X1594016Y719016D3*
Y652087D3*
D73*
X1531516Y794016D3*
X1598445D3*
D71*
X1106516Y769016D3*
Y702087D3*
X1844016Y869016D3*
Y935945D3*
Y1069016D3*
Y1002087D3*
D73*
X1744016Y794016D3*
X1677087D3*
D71*
X1681516Y656516D3*
Y723445D3*
X881516Y1444016D3*
Y1510945D3*
D73*
X869016Y1569016D3*
X935945D3*
X706516Y1081516D3*
X773445D3*
X694016Y1481516D3*
X627087D3*
X631516Y1319016D3*
X698445D3*
D71*
X806516Y1231516D3*
Y1164587D3*
D55*
X1519016Y1319016D3*
Y1269016D3*
Y1219016D3*
Y1169016D3*
Y1119016D3*
Y1069016D3*
Y1019016D3*
X1731614D3*
Y1069016D3*
Y1119016D3*
Y1169016D3*
Y1219016D3*
Y1269016D3*
Y1319016D3*
D53*
X969016Y1344016D3*
X931614D3*
X894213D3*
Y1237717D3*
X969016D3*
D67*
X1726693Y1439390D3*
Y1514193D3*
X1636142Y1476791D3*
M02*
